# Blender v2.93.5 OBJ File: 'morning-star-light-source.blend'
# www.blender.org
mtllib morning-star-light-source.mtl
o Cube_Cube.001
v -1.049152 -1.049152 -1.049152
v -0.098997 -1.737716 0.651760
v 2.049886 1.062143 -0.013934
v -1.505912 0.972296 -0.512210
v 3.035820 0.113690 1.111084
v 1.647948 2.787020 -0.037130
v -1.712426 -1.150601 -0.618165
v -2.140628 -0.726666 0.579781
v 1.100720 -1.322807 1.603127
v 1.795617 0.546851 -1.212979
v -1.663749 1.185595 -2.684750
v 1.622756 -0.080720 1.633126
v 1.305394 -0.579741 -1.766759
v -2.046531 -0.385051 -0.969483
v -1.998508 -0.029740 2.826931
v 0.189635 -0.509082 2.267807
v 2.937444 1.567218 0.578855
v 0.456711 0.460534 -2.129510
v -1.804093 -1.514374 -0.388624
v 2.000536 0.882980 0.798588
v 0.014829 -1.324473 -1.222345
v -1.585563 0.683126 0.799213
v 3.133565 0.468551 -0.498250
v -1.748825 -1.282746 -0.018871
v 1.554835 2.448974 1.495945
v -0.942574 1.671788 1.331108
v -2.100285 -0.943845 -0.633669
v 1.266616 -1.099511 -1.459460
v 2.787259 1.856506 0.454605
v -1.268230 -1.884223 -0.325579
v 0.946536 0.111493 -2.063649
v 0.459805 2.159365 0.670993
v -2.148692 0.259547 2.702681
v -2.046572 -0.907838 0.657595
v 0.620348 -3.214051 -0.795071
v 1.889674 0.365679 -1.135165
v -0.746477 2.235279 0.074904
v 1.034604 -1.677655 -1.067369
v -1.490969 0.593395 -1.677921
v -1.173607 1.092416 1.721964
v 1.459253 -1.480347 2.717082
v -1.000746 1.719987 -1.124142
v -1.695643 -0.149671 1.691965
v 0.940507 -2.019270 0.481896
v 1.794011 -0.265012 -2.794600
v -0.222404 0.743602 -2.107316
v -0.975028 3.208586 0.703152
v -0.489361 -0.225584 2.288054
v -0.002630 -2.273457 -0.446588
v 1.641679 1.574214 0.501699
v -0.757849 -0.911225 1.483998
v -0.564372 -0.208811 -1.701530
v 2.265611 1.079872 2.083984
v -2.013508 -0.772911 -0.237849
v 2.456469 1.772778 -1.058424
v -1.939541 -0.519264 -1.104630
v -0.795826 2.056116 0.887426
v 1.729747 -0.214934 1.497979
v 0.599695 -3.289032 -0.455024
v 0.472739 2.206324 0.458032
v 0.692513 -0.810735 2.118759
v -1.255295 -1.837265 -0.538540
v -1.834587 1.399901 -2.468953
v -0.831197 2.076139 -0.502672
v 2.766606 1.781524 0.794652
v 1.110916 -1.664775 1.104077
v -2.141017 -1.091722 0.036968
vt 0.373485 0.310100
vt 0.317508 0.307492
vt 0.314900 0.251515
vt 0.375000 0.250000
vt 0.346773 0.829430
vt 0.346774 0.420570
vt 0.903227 0.420570
vt 0.903226 0.829430
vt 0.667717 0.400556
vt 0.946272 0.403715
vt 0.953721 0.675033
vt 0.385952 0.678433
vt 0.125000 0.500000
vt 0.064900 0.498485
vt 0.067508 0.442508
vt 0.123485 0.439900
vt 0.580512 0.877782
vt 0.580512 0.877782
vt 0.041707 0.338977
vt 0.447022 1.079430
vt 0.447022 0.670570
vt 0.725248 0.670570
vt 0.725248 1.079430
vt 0.645813 0.419017
vt 0.646569 0.989630
vt 0.103164 0.710424
vt 0.113912 0.429609
vt 0.304609 0.238912
vt 0.585424 0.228164
vt 0.864630 0.771569
vt 0.294017 0.770813
vt 0.704430 1.079430
vt 0.295570 1.079430
vt 0.295570 0.670570
vt 0.704430 0.670570
vt 0.954430 0.829430
vt 0.545570 0.829430
vt 0.545570 0.420570
vt 0.954430 0.420570
vt 0.314900 0.248485
vt 0.317508 0.192508
vt 0.373485 0.189900
vt 0.419488 0.372218
vt 0.419488 0.372219
vt 0.958293 0.911024
vt 0.295570 0.471773
vt 0.704430 0.471773
vt 0.704430 1.028227
vt 0.295570 1.028227
vt 0.419488 0.622218
vt 0.419488 0.622219
vt 0.958293 1.161024
vt 0.704430 0.829430
vt 0.295570 0.829430
vt 0.295570 0.420570
vt 0.704430 0.420570
vt 0.582283 1.099444
vt 0.303728 1.096285
vt 0.296280 0.824967
vt 0.864048 0.821567
vt 0.971285 0.428728
vt 0.974443 0.707282
vt 0.696567 0.989048
vt 0.699967 0.421280
vt 0.752782 1.127782
vt 0.213976 1.127782
vt 0.752782 0.588976
vt 0.275556 0.792717
vt 0.553433 0.510952
vt 0.452730 0.922270
vt 0.375000 1.000000
vt 0.760069 0.849977
vt 0.797270 0.577730
vt 0.875000 0.672270
vt 0.875000 0.672270
vt 0.547270 0.922270
vt 0.547270 1.000000
vt 0.375000 1.000000
vt 0.875000 0.500000
vt 0.797270 0.577730
vt 0.550033 1.078720
vt 0.375000 1.000000
vt 0.375000 0.827730
vt 0.452730 0.827730
vt 0.452730 0.577730
vt 0.452730 0.672270
vt 0.298884 0.673884
vt 0.278715 1.071272
vt 0.375000 0.827730
vt 0.452730 0.827730
vt 0.452730 0.922270
vt 0.661861 0.649752
vt 0.625000 0.922270
vt 0.547270 0.827730
vt 0.547270 0.827730
vt 0.547270 0.922270
vt 0.452730 0.827730
vt 0.547270 0.827730
vt 0.725248 0.598549
vt 0.547270 0.827730
vt 0.547270 0.827730
vt 0.452730 0.672270
vt 0.695386 0.825409
vt 0.315163 0.506698
vt 0.315163 0.506698
vt 0.302191 0.500000
vt 0.452730 0.577730
vt 0.797270 0.577730
vt 0.702730 0.577730
vt 0.702730 0.500000
vt 0.725586 0.648528
vt 0.452730 0.577730
vt 0.548884 0.423884
vt 0.548884 0.423884
vt 0.730344 0.345494
vt 0.547270 0.577730
vt 0.375000 0.427191
vt 0.375000 0.427191
vt 0.797270 0.672270
vt 0.452730 0.672270
vt 0.452730 0.672270
vt 0.452730 0.827730
vt 0.547270 0.672270
vt 0.702730 0.672270
vt 0.625000 0.827730
vt 0.547270 0.672270
vt 0.702730 0.577730
vt 0.702730 0.577730
vt 0.547270 0.577730
vt 0.875000 0.500000
vt 0.875000 0.500000
vt 0.625000 0.827730
vn -0.4019 0.8990 0.1738
vn 0.8730 0.2824 -0.3976
vn 0.0726 0.2238 -0.9719
vn 0.2477 -0.5822 0.7744
vn 0.4838 -0.3988 0.7790
vn 0.3833 0.8968 0.2210
vn 0.4444 -0.8211 0.3582
vn 0.5036 -0.6064 -0.6154
vn 0.2291 0.4821 0.8456
vn 0.3129 0.7861 -0.5330
vn -0.5751 -0.5562 -0.5999
vn 0.5805 -0.0477 -0.8129
vn 0.8138 0.0675 0.5772
vn 0.8451 0.5090 0.1636
vn 0.9217 -0.3867 -0.0293
vn -0.4758 0.6222 0.6217
vn -0.4165 0.8373 -0.3541
vn -0.2192 0.9555 0.1974
vn -0.1392 0.3289 0.9340
vn -0.3804 0.1911 0.9048
vn -0.0376 0.8518 0.5225
vn 0.0013 0.9930 -0.1180
vn -0.5599 0.8156 0.1458
vn -0.0388 0.6935 -0.7194
vn -0.2782 0.5624 -0.7787
vn 0.1854 -0.6199 0.7624
vn 0.7461 -0.4417 0.4982
vn 0.4243 -0.0380 0.9047
vn 0.7006 0.6996 -0.1402
vn 0.6617 0.5584 0.5003
vn 0.9835 0.1548 0.0939
vn 0.6915 -0.7131 -0.1152
vn 0.4654 -0.8699 -0.1635
vn 0.5268 0.3339 -0.7817
vn 0.8096 -0.2110 -0.5477
vn 0.2879 -0.2478 -0.9250
vn 0.3731 -0.8261 -0.4223
vn -0.0860 -0.9718 -0.2195
vn 0.3428 -0.9362 0.0772
vn -0.2256 0.3272 -0.9176
vn -0.4766 0.6419 -0.6007
vn -0.6808 0.1738 -0.7116
vn -0.9014 -0.4152 0.1228
vn -0.6444 -0.7375 -0.2018
vn -0.8703 -0.3024 -0.3886
vn -0.3383 -0.0819 0.9375
vn -0.7626 -0.1231 0.6351
vn -0.5589 0.3430 0.7550
vn 0.2835 -0.2504 -0.9257
vn 0.1357 -0.5837 -0.8006
vn 0.7410 -0.5651 -0.3628
vn 0.0572 -0.8687 0.4920
vn 0.1811 -0.6224 0.7615
vn 0.7083 -0.6837 0.1754
vn -0.1948 -0.5525 0.8104
vn 0.0634 0.1253 0.9901
vn -0.7657 0.5471 0.3381
vn -0.5641 0.8129 0.1450
vn -0.1743 0.5832 0.7934
vn -0.0963 0.8662 -0.4903
vn -0.7352 0.6578 -0.1636
vn -0.6418 -0.5783 0.5037
vn -0.9713 0.0564 0.2310
vn -0.5644 -0.2975 -0.7700
vn -0.9393 0.1727 -0.2965
vn 0.1741 0.5270 -0.8318
vn -0.0859 -0.1568 -0.9839
vn -0.3767 -0.9108 0.1689
vn -0.3314 -0.7463 -0.5773
vn -0.0458 -0.2061 0.9775
usemtl None
s off
f 7/1/1 19/2/1 24/3/1 1/4/1
f 58/5/2 38/6/2 46/7/2 60/8/2
f 21/9/3 56/10/3 64/11/3 23/12/3
f 1/13/4 54/14/4 27/15/4 7/16/4
f 29/17/5 33/18/5 35/19/5
f 40/20/6 12/21/6 10/22/6 42/23/6
f 28/24/7 53/25/7 51/26/7 30/27/7
f 62/28/8 52/29/8 55/30/8 66/31/8
f 37/32/9 43/33/9 9/34/9 3/35/9
f 57/36/10 20/37/10 13/38/10 39/39/10
f 1/4/11 24/40/11 67/41/11 54/42/11
f 59/43/12 63/44/12 65/45/12
f 44/46/13 36/47/13 32/48/13 48/49/13
f 41/50/14 45/51/14 47/52/14
f 50/53/15 61/54/15 49/55/15 31/56/15
f 4/57/16 8/58/16 16/59/16 6/60/16
f 14/61/17 22/62/17 25/63/17 18/64/17
f 11/65/18 15/66/18 17/67/18
f 2/68/19 3/35/19 4/57/19
f 5/69/20 6/70/20 7/71/20
f 8/58/21 9/34/21 10/22/21 11/65/21
f 12/72/22 13/73/22 14/74/22 15/75/22
f 16/59/23 17/76/23 18/77/23 19/78/23
f 20/37/24 21/9/24 22/62/24
f 23/12/25 24/79/25 25/80/25
f 26/81/26 27/82/26 28/83/26 29/84/26
f 30/27/27 31/85/27 32/86/27 33/87/27
f 34/88/28 35/89/28 36/90/28 37/91/28
f 38/92/29 39/93/29 40/94/29 41/95/29
f 42/23/30 43/96/30 44/97/30 45/98/30
f 46/99/31 47/100/31 48/101/31 49/102/31
f 50/103/32 51/104/32 52/105/32
f 53/25/33 54/106/33 55/107/33
f 56/10/34 57/108/34 58/109/34 59/110/34
f 60/111/35 61/112/35 62/113/35 63/114/35
f 64/115/36 65/116/36 66/117/36 67/118/36
f 16/59/37 8/58/37 11/65/37 17/67/37
f 10/22/38 12/21/38 15/66/38 11/65/38
f 14/61/39 18/64/39 17/119/39 15/75/39
f 34/88/40 26/81/40 29/84/40 35/89/40
f 28/24/41 30/27/41 33/87/41 29/120/41
f 32/48/42 36/47/42 35/121/42 33/122/42
f 46/7/43 38/6/43 41/123/43 47/124/43
f 40/20/44 42/23/44 45/125/44 41/95/44
f 44/46/45 48/49/45 47/100/45 45/126/45
f 64/11/46 56/10/46 59/110/46 65/127/46
f 58/5/47 60/8/47 63/128/47 59/129/47
f 62/28/48 66/31/48 65/116/48 63/114/48
f 5/69/49 2/68/49 4/57/49 6/60/49
f 3/35/50 9/34/50 8/58/50 4/57/50
f 19/78/51 7/71/51 6/60/51 16/59/51
f 13/38/52 20/37/52 22/62/52 14/61/52
f 21/9/53 23/12/53 25/63/53 22/62/53
f 24/79/54 19/130/54 18/64/54 25/63/54
f 20/37/55 57/36/55 56/10/55 21/9/55
f 67/131/56 24/79/56 23/12/56 64/11/56
f 61/54/57 50/53/57 52/29/57 62/28/57
f 51/26/58 53/25/58 55/107/58 52/105/58
f 54/42/59 67/41/59 66/31/59 55/30/59
f 27/15/60 54/14/60 53/25/60 28/24/60
f 50/53/61 31/56/61 30/27/61 51/26/61
f 57/36/62 39/39/62 38/6/62 58/5/62
f 49/55/63 61/54/63 60/8/63 46/7/63
f 43/33/64 37/32/64 36/47/64 44/46/64
f 31/56/65 49/55/65 48/49/65 32/48/65
f 7/71/66 27/82/66 26/81/66 5/69/66
f 37/32/67 3/35/67 2/68/67 34/88/67
f 39/93/68 13/132/68 12/21/68 40/20/68
f 9/34/69 43/33/69 42/23/69 10/22/69
f 5/69/70 26/81/70 34/88/70 2/68/70
